# 3ds Max Wavefront OBJ Exporter v0.97b - (c)2007 guruware
# File Created: 21.11.2019 13:55:02

#
# object Cone001
#

v  0.8215 -0.6178 -0.4515
v  0.9682 -0.6178 -0.0000
v  1.0129 -0.7708 -0.0000
v  0.8576 -0.7708 -0.4778
v  0.4374 -0.6178 -0.7306
v  0.4512 -0.7708 -0.7731
v  -0.0374 -0.6178 -0.7306
v  -0.0512 -0.7708 -0.7731
v  -0.4215 -0.6178 -0.4515
v  -0.4576 -0.7708 -0.4778
v  -0.5682 -0.6178 0.0000
v  -0.6129 -0.7708 0.0000
v  -0.4215 -0.6178 0.4515
v  -0.4576 -0.7708 0.4778
v  -0.0374 -0.6178 0.7306
v  -0.0512 -0.7708 0.7731
v  0.4374 -0.6178 0.7306
v  0.4512 -0.7708 0.7731
v  0.8215 -0.6178 0.4515
v  0.8576 -0.7708 0.4778
v  0.7639 -0.4604 -0.4097
v  0.8970 -0.4604 -0.0000
v  0.4154 -0.4604 -0.6629
v  -0.0154 -0.4604 -0.6629
v  -0.3639 -0.4604 -0.4097
v  -0.4970 -0.4604 0.0000
v  -0.3639 -0.4604 0.4097
v  -0.0154 -0.4604 0.6629
v  0.4154 -0.4604 0.6629
v  0.7639 -0.4604 0.4097
v  0.6865 -0.3046 -0.3534
v  0.8013 -0.3046 -0.0000
v  0.3858 -0.3046 -0.5719
v  0.0142 -0.3046 -0.5719
v  -0.2865 -0.3046 -0.3534
v  -0.4013 -0.3046 0.0000
v  -0.2865 -0.3046 0.3534
v  0.0142 -0.3046 0.5719
v  0.3858 -0.3046 0.5719
v  0.6865 -0.3046 0.3534
v  0.5895 -0.1503 -0.2830
v  0.6815 -0.1503 -0.0000
v  0.3488 -0.1503 -0.4579
v  0.0512 -0.1503 -0.4579
v  -0.1895 -0.1503 -0.2830
v  -0.2815 -0.1503 0.0000
v  -0.1895 -0.1503 0.2830
v  0.0512 -0.1503 0.4579
v  0.3488 -0.1503 0.4579
v  0.5895 -0.1503 0.2830
v  0.4586 0.0160 -0.1879
v  0.5196 0.0160 -0.0000
v  0.2988 0.0160 -0.3040
v  0.1012 0.0160 -0.3040
v  -0.0586 0.0160 -0.1879
v  -0.1196 0.0160 0.0000
v  -0.0586 0.0160 0.1879
v  0.1012 0.0160 0.3040
v  0.2988 0.0160 0.3040
v  0.4586 0.0160 0.1879
v  0.9417 -0.7915 0.0000
v  0.8985 -0.6432 0.0000
v  0.7651 -0.6432 -0.4106
v  0.8000 -0.7915 -0.4359
v  0.4159 -0.6432 -0.6643
v  0.4292 -0.7915 -0.7054
v  -0.0159 -0.6432 -0.6643
v  -0.0292 -0.7915 -0.7054
v  -0.3651 -0.6432 -0.4106
v  -0.4000 -0.7915 -0.4359
v  -0.4985 -0.6432 0.0000
v  -0.5417 -0.7915 0.0000
v  -0.3651 -0.6432 0.4106
v  -0.4000 -0.7915 0.4359
v  -0.0159 -0.6432 0.6643
v  -0.0292 -0.7915 0.7054
v  0.4159 -0.6432 0.6643
v  0.4292 -0.7915 0.7054
v  0.7651 -0.6432 0.4106
v  0.8000 -0.7915 0.4359
v  0.8313 -0.4949 0.0000
v  0.7107 -0.4949 -0.3711
v  0.3951 -0.4949 -0.6004
v  0.0049 -0.4949 -0.6004
v  -0.3107 -0.4949 -0.3711
v  -0.4313 -0.4949 0.0000
v  -0.3107 -0.4949 0.3711
v  0.0049 -0.4949 0.6004
v  0.3951 -0.4949 0.6004
v  0.7107 -0.4949 0.3711
v  0.7401 -0.3465 0.0000
v  0.6369 -0.3465 -0.3175
v  0.3669 -0.3465 -0.5137
v  0.0331 -0.3465 -0.5137
v  -0.2369 -0.3465 -0.3175
v  -0.3401 -0.3465 0.0000
v  -0.2369 -0.3465 0.3175
v  0.0331 -0.3465 0.5137
v  0.3669 -0.3465 0.5137
v  0.6369 -0.3465 0.3175
v  0.6248 -0.1982 0.0000
v  0.5437 -0.1982 -0.2497
v  0.3313 -0.1982 -0.4040
v  0.0687 -0.1982 -0.4040
v  -0.1437 -0.1982 -0.2497
v  -0.2248 -0.1982 0.0000
v  -0.1437 -0.1982 0.2497
v  0.0687 -0.1982 0.4040
v  0.3313 -0.1982 0.4040
v  0.5437 -0.1982 0.2497
v  0.4855 -0.0499 0.0000
v  0.4310 -0.0499 -0.1678
v  0.2882 -0.0499 -0.2716
v  0.1118 -0.0499 -0.2716
v  -0.0310 -0.0499 -0.1678
v  -0.0855 -0.0499 0.0000
v  -0.0310 -0.0499 0.1678
v  0.1118 -0.0499 0.2716
v  0.2882 -0.0499 0.2716
v  0.4310 -0.0499 0.1678
# 120 vertices

vn 0.7600 0.3427 -0.5522
vn 0.9394 0.3427 -0.0000
vn 0.9599 0.2804 -0.0000
vn 0.7766 0.2804 -0.5642
vn 0.2903 0.3427 -0.8935
vn 0.2966 0.2804 -0.9129
vn -0.2903 0.3427 -0.8935
vn -0.2966 0.2804 -0.9129
vn -0.7600 0.3427 -0.5522
vn -0.7766 0.2804 -0.5642
vn -0.9394 0.3427 0.0000
vn -0.9599 0.2804 -0.0000
vn -0.7600 0.3427 0.5522
vn -0.7766 0.2804 0.5642
vn -0.2903 0.3427 0.8935
vn -0.2966 0.2804 0.9129
vn 0.2903 0.3427 0.8935
vn 0.2966 0.2804 0.9129
vn 0.7600 0.3427 0.5522
vn 0.7766 0.2804 0.5642
vn 0.7168 0.4637 -0.5208
vn 0.8860 0.4637 -0.0000
vn 0.2738 0.4637 -0.8426
vn -0.2738 0.4637 -0.8426
vn -0.7168 0.4637 -0.5208
vn -0.8860 0.4637 0.0000
vn -0.7168 0.4637 0.5208
vn -0.2738 0.4637 0.8426
vn 0.2738 0.4637 0.8426
vn 0.7168 0.4637 0.5208
vn 0.6680 0.5642 -0.4853
vn 0.8256 0.5642 -0.0000
vn 0.2551 0.5642 -0.7852
vn -0.2551 0.5642 -0.7852
vn -0.6680 0.5642 -0.4853
vn -0.8256 0.5642 0.0000
vn -0.6680 0.5642 0.4853
vn -0.2551 0.5642 0.7852
vn 0.2551 0.5642 0.7852
vn 0.6680 0.5642 0.4853
vn 0.6142 0.6509 -0.4462
vn 0.7592 0.6509 0.0000
vn 0.2346 0.6509 -0.7220
vn -0.2346 0.6509 -0.7220
vn -0.6142 0.6509 -0.4462
vn -0.7592 0.6509 0.0000
vn -0.6142 0.6509 0.4462
vn -0.2346 0.6509 0.7220
vn 0.2346 0.6509 0.7220
vn 0.6142 0.6509 0.4462
vn 0.5798 0.6974 -0.4213
vn 0.7167 0.6974 -0.0000
vn 0.2215 0.6974 -0.6816
vn -0.2215 0.6974 -0.6816
vn -0.5798 0.6974 -0.4213
vn -0.7167 0.6974 -0.0000
vn -0.5798 0.6974 0.4213
vn -0.2215 0.6974 0.6816
vn 0.2215 0.6974 0.6816
vn 0.5798 0.6974 0.4213
vn -0.9602 -0.2794 0.0000
vn -0.9395 -0.3424 0.0000
vn -0.7601 -0.3424 0.5523
vn -0.7768 -0.2794 0.5644
vn -0.2903 -0.3424 0.8936
vn -0.2967 -0.2794 0.9132
vn 0.2903 -0.3424 0.8936
vn 0.2967 -0.2794 0.9132
vn 0.7601 -0.3424 0.5523
vn 0.7768 -0.2794 0.5644
vn 0.9395 -0.3424 -0.0000
vn 0.9602 -0.2794 -0.0000
vn 0.7601 -0.3424 -0.5523
vn 0.7768 -0.2794 -0.5644
vn 0.2903 -0.3424 -0.8936
vn 0.2967 -0.2794 -0.9132
vn -0.2903 -0.3424 -0.8936
vn -0.2967 -0.2794 -0.9132
vn -0.7601 -0.3424 -0.5523
vn -0.7768 -0.2794 -0.5644
vn -0.8858 -0.4641 0.0000
vn -0.7166 -0.4641 0.5206
vn -0.2737 -0.4641 0.8424
vn 0.2737 -0.4641 0.8424
vn 0.7166 -0.4641 0.5206
vn 0.8858 -0.4641 -0.0000
vn 0.7166 -0.4641 -0.5206
vn 0.2737 -0.4641 -0.8424
vn -0.2737 -0.4641 -0.8424
vn -0.7166 -0.4641 -0.5206
vn -0.8254 -0.5646 0.0000
vn -0.6678 -0.5646 0.4852
vn -0.2551 -0.5646 0.7850
vn 0.2551 -0.5646 0.7850
vn 0.6678 -0.5646 0.4852
vn 0.8254 -0.5646 0.0000
vn 0.6678 -0.5646 -0.4852
vn 0.2551 -0.5646 -0.7850
vn -0.2551 -0.5646 -0.7850
vn -0.6678 -0.5646 -0.4852
vn -0.7640 -0.6452 0.0000
vn -0.6181 -0.6452 0.4491
vn -0.2361 -0.6452 0.7266
vn 0.2361 -0.6452 0.7266
vn 0.6181 -0.6452 0.4491
vn 0.7640 -0.6452 -0.0000
vn 0.6181 -0.6452 -0.4491
vn 0.2361 -0.6452 -0.7266
vn -0.2361 -0.6452 -0.7266
vn -0.6181 -0.6452 -0.4491
vn -0.7290 -0.6845 0.0000
vn -0.5898 -0.6845 0.4285
vn -0.2253 -0.6845 0.6933
vn 0.2253 -0.6845 0.6933
vn 0.5898 -0.6845 0.4285
vn 0.7290 -0.6845 -0.0000
vn 0.5898 -0.6845 -0.4285
vn 0.2253 -0.6845 -0.6933
vn -0.2253 -0.6845 -0.6933
vn -0.5898 -0.6845 -0.4285
vn 0.2794 -0.9602 -0.0000
vn 0.2260 -0.9602 -0.1642
vn 0.2794 -0.9602 0.0000
vn 0.0863 -0.9602 -0.2657
vn -0.0863 -0.9602 -0.2657
vn -0.2260 -0.9602 -0.1642
vn -0.2794 -0.9602 0.0000
vn -0.2260 -0.9602 0.1642
vn -0.0863 -0.9602 0.2657
vn 0.0863 -0.9602 0.2657
vn 0.2260 -0.9602 0.1642
# 131 vertex normals

vt 0.8500 0.2000 0.8500
vt 0.7500 0.2000 0.8500
vt 0.7500 0.0000 1.0000
vt 0.8500 0.0000 1.0000
vt 0.9500 0.2000 0.8500
vt 0.9500 0.0000 1.0000
vt 0.0500 0.2000 0.8500
vt -0.0500 0.2000 0.8500
vt -0.0500 0.0000 1.0000
vt 0.0500 0.0000 1.0000
vt 0.1500 0.2000 0.8500
vt 0.1500 0.0000 1.0000
vt 0.2500 0.2000 0.8500
vt 0.2500 0.0000 1.0000
vt 0.3500 0.2000 0.8500
vt 0.3500 0.0000 1.0000
vt 0.4500 0.2000 0.8500
vt 0.4500 0.0000 1.0000
vt 0.5500 0.2000 0.8500
vt 0.5500 0.0000 1.0000
vt 0.6500 0.2000 0.8500
vt 0.6500 0.0000 1.0000
vt 0.8500 0.4000 0.7000
vt 0.7500 0.4000 0.7000
vt 0.9500 0.4000 0.7000
vt 0.0500 0.4000 0.7000
vt -0.0500 0.4000 0.7000
vt 0.1500 0.4000 0.7000
vt 0.2500 0.4000 0.7000
vt 0.3500 0.4000 0.7000
vt 0.4500 0.4000 0.7000
vt 0.5500 0.4000 0.7000
vt 0.6500 0.4000 0.7000
vt 0.8500 0.6000 0.5500
vt 0.7500 0.6000 0.5500
vt 0.9500 0.6000 0.5500
vt 0.0500 0.6000 0.5500
vt -0.0500 0.6000 0.5500
vt 0.1500 0.6000 0.5500
vt 0.2500 0.6000 0.5500
vt 0.3500 0.6000 0.5500
vt 0.4500 0.6000 0.5500
vt 0.5500 0.6000 0.5500
vt 0.6500 0.6000 0.5500
vt 0.8500 0.8000 0.4000
vt 0.7500 0.8000 0.4000
vt 0.9500 0.8000 0.4000
vt 0.0500 0.8000 0.4000
vt -0.0500 0.8000 0.4000
vt 0.1500 0.8000 0.4000
vt 0.2500 0.8000 0.4000
vt 0.3500 0.8000 0.4000
vt 0.4500 0.8000 0.4000
vt 0.5500 0.8000 0.4000
vt 0.6500 0.8000 0.4000
vt 0.8500 1.0000 0.2500
vt 0.7500 1.0000 0.2500
vt 0.9500 1.0000 0.2500
vt 0.0500 1.0000 0.2500
vt -0.0500 1.0000 0.2500
vt 0.1500 1.0000 0.2500
vt 0.2500 1.0000 0.2500
vt 0.3500 1.0000 0.2500
vt 0.4500 1.0000 0.2500
vt 0.5500 1.0000 0.2500
vt 0.6500 1.0000 0.2500
# 66 texture coords

o Cone001
g Cone001
s 8
f 1/1/1 2/2/2 3/3/3 
f 3/3/3 4/4/4 1/1/1 
f 5/5/5 1/1/1 4/4/4 
f 4/4/4 6/6/6 5/5/5 
f 7/7/7 5/8/5 6/9/6 
f 6/9/6 8/10/8 7/7/7 
f 9/11/9 7/7/7 8/10/8 
f 8/10/8 10/12/10 9/11/9 
f 11/13/11 9/11/9 10/12/10 
f 10/12/10 12/14/12 11/13/11 
f 13/15/13 11/13/11 12/14/12 
f 12/14/12 14/16/14 13/15/13 
f 15/17/15 13/15/13 14/16/14 
f 14/16/14 16/18/16 15/17/15 
f 17/19/17 15/17/15 16/18/16 
f 16/18/16 18/20/18 17/19/17 
f 19/21/19 17/19/17 18/20/18 
f 18/20/18 20/22/20 19/21/19 
f 2/2/2 19/21/19 20/22/20 
f 20/22/20 3/3/3 2/2/2 
f 21/23/21 22/24/22 2/2/2 
f 2/2/2 1/1/1 21/23/21 
f 23/25/23 21/23/21 1/1/1 
f 1/1/1 5/5/5 23/25/23 
f 24/26/24 23/27/23 5/8/5 
f 5/8/5 7/7/7 24/26/24 
f 25/28/25 24/26/24 7/7/7 
f 7/7/7 9/11/9 25/28/25 
f 26/29/26 25/28/25 9/11/9 
f 9/11/9 11/13/11 26/29/26 
f 27/30/27 26/29/26 11/13/11 
f 11/13/11 13/15/13 27/30/27 
f 28/31/28 27/30/27 13/15/13 
f 13/15/13 15/17/15 28/31/28 
f 29/32/29 28/31/28 15/17/15 
f 15/17/15 17/19/17 29/32/29 
f 30/33/30 29/32/29 17/19/17 
f 17/19/17 19/21/19 30/33/30 
f 22/24/22 30/33/30 19/21/19 
f 19/21/19 2/2/2 22/24/22 
f 31/34/31 32/35/32 22/24/22 
f 22/24/22 21/23/21 31/34/31 
f 33/36/33 31/34/31 21/23/21 
f 21/23/21 23/25/23 33/36/33 
f 34/37/34 33/38/33 23/27/23 
f 23/27/23 24/26/24 34/37/34 
f 35/39/35 34/37/34 24/26/24 
f 24/26/24 25/28/25 35/39/35 
f 36/40/36 35/39/35 25/28/25 
f 25/28/25 26/29/26 36/40/36 
f 37/41/37 36/40/36 26/29/26 
f 26/29/26 27/30/27 37/41/37 
f 38/42/38 37/41/37 27/30/27 
f 27/30/27 28/31/28 38/42/38 
f 39/43/39 38/42/38 28/31/28 
f 28/31/28 29/32/29 39/43/39 
f 40/44/40 39/43/39 29/32/29 
f 29/32/29 30/33/30 40/44/40 
f 32/35/32 40/44/40 30/33/30 
f 30/33/30 22/24/22 32/35/32 
f 41/45/41 42/46/42 32/35/32 
f 32/35/32 31/34/31 41/45/41 
f 43/47/43 41/45/41 31/34/31 
f 31/34/31 33/36/33 43/47/43 
f 44/48/44 43/49/43 33/38/33 
f 33/38/33 34/37/34 44/48/44 
f 45/50/45 44/48/44 34/37/34 
f 34/37/34 35/39/35 45/50/45 
f 46/51/46 45/50/45 35/39/35 
f 35/39/35 36/40/36 46/51/46 
f 47/52/47 46/51/46 36/40/36 
f 36/40/36 37/41/37 47/52/47 
f 48/53/48 47/52/47 37/41/37 
f 37/41/37 38/42/38 48/53/48 
f 49/54/49 48/53/48 38/42/38 
f 38/42/38 39/43/39 49/54/49 
f 50/55/50 49/54/49 39/43/39 
f 39/43/39 40/44/40 50/55/50 
f 42/46/42 50/55/50 40/44/40 
f 40/44/40 32/35/32 42/46/42 
f 51/56/51 52/57/52 42/46/42 
f 42/46/42 41/45/41 51/56/51 
f 53/58/53 51/56/51 41/45/41 
f 41/45/41 43/47/43 53/58/53 
f 54/59/54 53/60/53 43/49/43 
f 43/49/43 44/48/44 54/59/54 
f 55/61/55 54/59/54 44/48/44 
f 44/48/44 45/50/45 55/61/55 
f 56/62/56 55/61/55 45/50/45 
f 45/50/45 46/51/46 56/62/56 
f 57/63/57 56/62/56 46/51/46 
f 46/51/46 47/52/47 57/63/57 
f 58/64/58 57/63/57 47/52/47 
f 47/52/47 48/53/48 58/64/58 
f 59/65/59 58/64/58 48/53/48 
f 48/53/48 49/54/49 59/65/59 
f 60/66/60 59/65/59 49/54/49 
f 49/54/49 50/55/50 60/66/60 
f 52/57/52 60/66/60 50/55/50 
f 50/55/50 42/46/42 52/57/52 
f 61/3/61 62/2/62 63/1/63 
f 63/1/63 64/4/64 61/3/61 
f 64/4/64 63/1/63 65/5/65 
f 65/5/65 66/6/66 64/4/64 
f 66/9/66 65/8/65 67/7/67 
f 67/7/67 68/10/68 66/9/66 
f 68/10/68 67/7/67 69/11/69 
f 69/11/69 70/12/70 68/10/68 
f 70/12/70 69/11/69 71/13/71 
f 71/13/71 72/14/72 70/12/70 
f 72/14/72 71/13/71 73/15/73 
f 73/15/73 74/16/74 72/14/72 
f 74/16/74 73/15/73 75/17/75 
f 75/17/75 76/18/76 74/16/74 
f 76/18/76 75/17/75 77/19/77 
f 77/19/77 78/20/78 76/18/76 
f 78/20/78 77/19/77 79/21/79 
f 79/21/79 80/22/80 78/20/78 
f 80/22/80 79/21/79 62/2/62 
f 62/2/62 61/3/61 80/22/80 
f 62/2/62 81/24/81 82/23/82 
f 82/23/82 63/1/63 62/2/62 
f 63/1/63 82/23/82 83/25/83 
f 83/25/83 65/5/65 63/1/63 
f 65/8/65 83/27/83 84/26/84 
f 84/26/84 67/7/67 65/8/65 
f 67/7/67 84/26/84 85/28/85 
f 85/28/85 69/11/69 67/7/67 
f 69/11/69 85/28/85 86/29/86 
f 86/29/86 71/13/71 69/11/69 
f 71/13/71 86/29/86 87/30/87 
f 87/30/87 73/15/73 71/13/71 
f 73/15/73 87/30/87 88/31/88 
f 88/31/88 75/17/75 73/15/73 
f 75/17/75 88/31/88 89/32/89 
f 89/32/89 77/19/77 75/17/75 
f 77/19/77 89/32/89 90/33/90 
f 90/33/90 79/21/79 77/19/77 
f 79/21/79 90/33/90 81/24/81 
f 81/24/81 62/2/62 79/21/79 
f 81/24/81 91/35/91 92/34/92 
f 92/34/92 82/23/82 81/24/81 
f 82/23/82 92/34/92 93/36/93 
f 93/36/93 83/25/83 82/23/82 
f 83/27/83 93/38/93 94/37/94 
f 94/37/94 84/26/84 83/27/83 
f 84/26/84 94/37/94 95/39/95 
f 95/39/95 85/28/85 84/26/84 
f 85/28/85 95/39/95 96/40/96 
f 96/40/96 86/29/86 85/28/85 
f 86/29/86 96/40/96 97/41/97 
f 97/41/97 87/30/87 86/29/86 
f 87/30/87 97/41/97 98/42/98 
f 98/42/98 88/31/88 87/30/87 
f 88/31/88 98/42/98 99/43/99 
f 99/43/99 89/32/89 88/31/88 
f 89/32/89 99/43/99 100/44/100 
f 100/44/100 90/33/90 89/32/89 
f 90/33/90 100/44/100 91/35/91 
f 91/35/91 81/24/81 90/33/90 
f 91/35/91 101/46/101 102/45/102 
f 102/45/102 92/34/92 91/35/91 
f 92/34/92 102/45/102 103/47/103 
f 103/47/103 93/36/93 92/34/92 
f 93/38/93 103/49/103 104/48/104 
f 104/48/104 94/37/94 93/38/93 
f 94/37/94 104/48/104 105/50/105 
f 105/50/105 95/39/95 94/37/94 
f 95/39/95 105/50/105 106/51/106 
f 106/51/106 96/40/96 95/39/95 
f 96/40/96 106/51/106 107/52/107 
f 107/52/107 97/41/97 96/40/96 
f 97/41/97 107/52/107 108/53/108 
f 108/53/108 98/42/98 97/41/97 
f 98/42/98 108/53/108 109/54/109 
f 109/54/109 99/43/99 98/42/98 
f 99/43/99 109/54/109 110/55/110 
f 110/55/110 100/44/100 99/43/99 
f 100/44/100 110/55/110 101/46/101 
f 101/46/101 91/35/91 100/44/100 
f 101/46/101 111/57/111 112/56/112 
f 112/56/112 102/45/102 101/46/101 
f 102/45/102 112/56/112 113/58/113 
f 113/58/113 103/47/103 102/45/102 
f 103/49/103 113/60/113 114/59/114 
f 114/59/114 104/48/104 103/49/103 
f 104/48/104 114/59/114 115/61/115 
f 115/61/115 105/50/105 104/48/104 
f 105/50/105 115/61/115 116/62/116 
f 116/62/116 106/51/106 105/50/105 
f 106/51/106 116/62/116 117/63/117 
f 117/63/117 107/52/107 106/51/106 
f 107/52/107 117/63/117 118/64/118 
f 118/64/118 108/53/108 107/52/107 
f 108/53/108 118/64/118 119/65/119 
f 119/65/119 109/54/109 108/53/108 
f 109/54/109 119/65/119 120/66/120 
f 120/66/120 110/55/110 109/54/109 
f 110/55/110 120/66/120 111/57/111 
f 111/57/111 101/46/101 110/55/110 
s 1
f 61/3/121 64/4/122 4/4/122 
f 4/4/122 3/3/123 61/3/121 
f 64/4/122 66/6/124 6/6/124 
f 6/6/124 4/4/122 64/4/122 
f 66/9/124 68/10/125 8/10/125 
f 8/10/125 6/9/124 66/9/124 
f 68/10/125 70/12/126 10/12/126 
f 10/12/126 8/10/125 68/10/125 
f 70/12/126 72/14/127 12/14/127 
f 12/14/127 10/12/126 70/12/126 
f 72/14/127 74/16/128 14/16/128 
f 14/16/128 12/14/127 72/14/127 
f 74/16/128 76/18/129 16/18/129 
f 16/18/129 14/16/128 74/16/128 
f 76/18/129 78/20/130 18/20/130 
f 18/20/130 16/18/129 76/18/129 
f 78/20/130 80/22/131 20/22/131 
f 20/22/131 18/20/130 78/20/130 
f 80/22/131 61/3/121 3/3/123 
f 3/3/123 20/22/131 80/22/131 
# 220 faces

