# 3ds Max Wavefront OBJ Exporter v0.97b - (c)2007 guruware
# File Created: 21.11.2019 16:18:08

#
# object Cone001
#

v  1.5000 0.0000 -0.0000
v  1.4489 0.0000 -0.3882
v  1.4591 1.2000 -0.3106
v  1.5000 6.0000 -0.0000
v  1.5000 4.8000 -0.0000
v  1.4898 4.8000 -0.0776
v  1.5000 3.6000 -0.0000
v  1.4796 3.6000 -0.1553
v  1.5000 2.4000 -0.0000
v  1.4693 2.4000 -0.2329
v  1.5000 1.2000 -0.0000
v  1.2990 0.0000 -0.7500
v  1.3392 1.2000 -0.6000
v  1.4598 4.8000 -0.1500
v  1.4196 3.6000 -0.3000
v  1.3794 2.4000 -0.4500
v  1.0607 0.0000 -1.0607
v  1.1485 1.2000 -0.8485
v  1.4121 4.8000 -0.2121
v  1.3243 3.6000 -0.4243
v  1.2364 2.4000 -0.6364
v  0.7500 0.0000 -1.2990
v  0.9000 1.2000 -1.0392
v  1.3500 4.8000 -0.2598
v  1.2000 3.6000 -0.5196
v  1.0500 2.4000 -0.7794
v  0.3882 0.0000 -1.4489
v  0.6106 1.2000 -1.1591
v  1.2776 4.8000 -0.2898
v  1.0553 3.6000 -0.5796
v  0.8329 2.4000 -0.8693
v  0.0000 0.0000 -1.5000
v  0.3000 1.2000 -1.2000
v  1.2000 4.8000 -0.3000
v  0.9000 3.6000 -0.6000
v  0.6000 2.4000 -0.9000
v  -0.3882 0.0000 -1.4489
v  -0.0106 1.2000 -1.1591
v  1.1224 4.8000 -0.2898
v  0.7447 3.6000 -0.5796
v  0.3671 2.4000 -0.8693
v  -0.7500 0.0000 -1.2990
v  -0.3000 1.2000 -1.0392
v  1.0500 4.8000 -0.2598
v  0.6000 3.6000 -0.5196
v  0.1500 2.4000 -0.7794
v  -1.0607 0.0000 -1.0607
v  -0.5485 1.2000 -0.8485
v  0.9879 4.8000 -0.2121
v  0.4757 3.6000 -0.4243
v  -0.0364 2.4000 -0.6364
v  -1.2990 0.0000 -0.7500
v  -0.7392 1.2000 -0.6000
v  0.9402 4.8000 -0.1500
v  0.3804 3.6000 -0.3000
v  -0.1794 2.4000 -0.4500
v  -1.4489 0.0000 -0.3882
v  -0.8591 1.2000 -0.3106
v  0.9102 4.8000 -0.0776
v  0.3204 3.6000 -0.1553
v  -0.2693 2.4000 -0.2329
v  -1.5000 0.0000 -0.0000
v  -0.9000 1.2000 -0.0000
v  0.9000 4.8000 -0.0000
v  0.3000 3.6000 -0.0000
v  -0.3000 2.4000 -0.0000
v  -1.4489 0.0000 0.3882
v  -0.8591 1.2000 0.3106
v  0.9102 4.8000 0.0776
v  0.3204 3.6000 0.1553
v  -0.2693 2.4000 0.2329
v  -1.2990 0.0000 0.7500
v  -0.7392 1.2000 0.6000
v  0.9402 4.8000 0.1500
v  0.3804 3.6000 0.3000
v  -0.1794 2.4000 0.4500
v  -1.0607 0.0000 1.0607
v  -0.5485 1.2000 0.8485
v  0.9879 4.8000 0.2121
v  0.4757 3.6000 0.4243
v  -0.0364 2.4000 0.6364
v  -0.7500 0.0000 1.2990
v  -0.3000 1.2000 1.0392
v  1.0500 4.8000 0.2598
v  0.6000 3.6000 0.5196
v  0.1500 2.4000 0.7794
v  -0.3882 0.0000 1.4489
v  -0.0106 1.2000 1.1591
v  1.1224 4.8000 0.2898
v  0.7447 3.6000 0.5796
v  0.3671 2.4000 0.8693
v  -0.0000 0.0000 1.5000
v  0.3000 1.2000 1.2000
v  1.2000 4.8000 0.3000
v  0.9000 3.6000 0.6000
v  0.6000 2.4000 0.9000
v  0.3882 0.0000 1.4489
v  0.6106 1.2000 1.1591
v  1.2776 4.8000 0.2898
v  1.0553 3.6000 0.5796
v  0.8329 2.4000 0.8693
v  0.7500 0.0000 1.2990
v  0.9000 1.2000 1.0392
v  1.3500 4.8000 0.2598
v  1.2000 3.6000 0.5196
v  1.0500 2.4000 0.7794
v  1.0607 0.0000 1.0607
v  1.1485 1.2000 0.8485
v  1.4121 4.8000 0.2121
v  1.3243 3.6000 0.4243
v  1.2364 2.4000 0.6364
v  1.2990 0.0000 0.7500
v  1.3392 1.2000 0.6000
v  1.4598 4.8000 0.1500
v  1.4196 3.6000 0.3000
v  1.3794 2.4000 0.4500
v  1.4489 0.0000 0.3882
v  1.4591 1.2000 0.3106
v  1.4898 4.8000 0.0776
v  1.4796 3.6000 0.1553
v  1.4693 2.4000 0.2329
# 121 vertices

vn 1.0000 0.0000 0.0000
vn 0.9645 0.0089 -0.2640
vn 0.9659 0.0085 -0.2588
vn 0.9914 0.0000 -0.1305
vn 0.9914 0.0000 0.1305
vn 1.0000 -0.0000 0.0000
vn 0.8603 0.0348 -0.5086
vn 0.8656 0.0335 -0.4997
vn 0.9237 0.0169 -0.3826
vn 0.6949 0.0755 -0.7151
vn 0.7054 0.0730 -0.7051
vn 0.7924 0.0495 -0.6080
vn 0.4810 0.1277 -0.8674
vn 0.4965 0.1239 -0.8591
vn 0.6060 0.0952 -0.7897
vn 0.2363 0.1865 -0.9536
vn 0.2552 0.1820 -0.9496
vn 0.3783 0.1505 -0.9134
vn -0.0186 0.2469 -0.9689
vn 0.0010 0.2423 -0.9702
vn 0.1276 0.2104 -0.9692
vn -0.2632 0.3039 -0.9156
vn -0.2458 0.2999 -0.9217
vn -0.1257 0.2701 -0.9546
vn -0.4805 0.3539 -0.8024
vn -0.4672 0.3509 -0.8115
vn -0.3619 0.3249 -0.8738
vn -0.6581 0.3943 -0.6415
vn -0.6497 0.3924 -0.6511
vn -0.5652 0.3714 -0.7366
vn -0.7885 0.4236 -0.4459
vn -0.7845 0.4227 -0.4538
vn -0.7245 0.4075 -0.5559
vn -0.8678 0.4413 -0.2283
vn -0.8668 0.4411 -0.2327
vn -0.8333 0.4319 -0.3452
vn -0.8944 0.4472 -0.0000
vn -0.8883 0.4441 -0.1169
vn -0.8678 0.4413 0.2283
vn -0.8668 0.4411 0.2327
vn -0.8883 0.4441 0.1169
vn -0.7885 0.4236 0.4459
vn -0.7845 0.4227 0.4538
vn -0.8333 0.4319 0.3452
vn -0.6581 0.3943 0.6415
vn -0.6497 0.3924 0.6511
vn -0.7245 0.4075 0.5559
vn -0.4805 0.3539 0.8024
vn -0.4672 0.3509 0.8115
vn -0.5652 0.3714 0.7366
vn -0.2632 0.3039 0.9156
vn -0.2458 0.2999 0.9217
vn -0.3619 0.3249 0.8738
vn -0.0186 0.2469 0.9689
vn 0.0010 0.2423 0.9702
vn -0.1257 0.2701 0.9546
vn 0.2363 0.1865 0.9536
vn 0.2552 0.1820 0.9496
vn 0.1276 0.2104 0.9692
vn 0.4810 0.1277 0.8674
vn 0.4965 0.1239 0.8591
vn 0.3783 0.1505 0.9134
vn 0.6949 0.0755 0.7151
vn 0.7054 0.0730 0.7051
vn 0.6060 0.0952 0.7897
vn 0.8603 0.0348 0.5086
vn 0.8656 0.0335 0.4997
vn 0.7924 0.0495 0.6080
vn 0.9645 0.0089 0.2640
vn 0.9659 0.0085 0.2588
vn 0.9237 0.0169 0.3826
vn 1.0000 0.0000 -0.0000
# 72 vertex normals

vt 0.7500 0.0000 1.0000
vt 0.7917 0.0000 1.0000
vt 0.7917 0.2000 0.8000
vt 0.5000 1.0000 0.0000
vt 0.7500 0.8000 0.2000
vt 0.7917 0.8000 0.2000
vt 0.7500 0.6000 0.4000
vt 0.7917 0.6000 0.4000
vt 0.7500 0.4000 0.6000
vt 0.7917 0.4000 0.6000
vt 0.7500 0.2000 0.8000
vt 0.8333 0.0000 1.0000
vt 0.8333 0.2000 0.8000
vt 0.8333 0.8000 0.2000
vt 0.8333 0.6000 0.4000
vt 0.8333 0.4000 0.6000
vt 0.8750 0.0000 1.0000
vt 0.8750 0.2000 0.8000
vt 0.8750 0.8000 0.2000
vt 0.8750 0.6000 0.4000
vt 0.8750 0.4000 0.6000
vt 0.9167 0.0000 1.0000
vt 0.9167 0.2000 0.8000
vt 0.9167 0.8000 0.2000
vt 0.9167 0.6000 0.4000
vt 0.9167 0.4000 0.6000
vt 0.9583 0.0000 1.0000
vt 0.9583 0.2000 0.8000
vt 0.9583 0.8000 0.2000
vt 0.9583 0.6000 0.4000
vt 0.9583 0.4000 0.6000
vt 1.0000 0.0000 1.0000
vt 1.0000 0.2000 0.8000
vt 1.0000 0.8000 0.2000
vt 1.0000 0.6000 0.4000
vt 1.0000 0.4000 0.6000
vt -0.0000 0.0000 1.0000
vt 0.0417 0.0000 1.0000
vt 0.0417 0.2000 0.8000
vt -0.0000 0.8000 0.2000
vt 0.0417 0.8000 0.2000
vt -0.0000 0.6000 0.4000
vt 0.0417 0.6000 0.4000
vt -0.0000 0.4000 0.6000
vt 0.0417 0.4000 0.6000
vt -0.0000 0.2000 0.8000
vt 0.0833 0.0000 1.0000
vt 0.0833 0.2000 0.8000
vt 0.0833 0.8000 0.2000
vt 0.0833 0.6000 0.4000
vt 0.0833 0.4000 0.6000
vt 0.1250 0.0000 1.0000
vt 0.1250 0.2000 0.8000
vt 0.1250 0.8000 0.2000
vt 0.1250 0.6000 0.4000
vt 0.1250 0.4000 0.6000
vt 0.1667 0.0000 1.0000
vt 0.1667 0.2000 0.8000
vt 0.1667 0.8000 0.2000
vt 0.1667 0.6000 0.4000
vt 0.1667 0.4000 0.6000
vt 0.2083 0.0000 1.0000
vt 0.2083 0.2000 0.8000
vt 0.2083 0.8000 0.2000
vt 0.2083 0.6000 0.4000
vt 0.2083 0.4000 0.6000
vt 0.2500 0.0000 1.0000
vt 0.2500 0.2000 0.8000
vt 0.2500 0.8000 0.2000
vt 0.2500 0.6000 0.4000
vt 0.2500 0.4000 0.6000
vt 0.2917 0.0000 1.0000
vt 0.2917 0.2000 0.8000
vt 0.2917 0.8000 0.2000
vt 0.2917 0.6000 0.4000
vt 0.2917 0.4000 0.6000
vt 0.3333 0.0000 1.0000
vt 0.3333 0.2000 0.8000
vt 0.3333 0.8000 0.2000
vt 0.3333 0.6000 0.4000
vt 0.3333 0.4000 0.6000
vt 0.3750 0.0000 1.0000
vt 0.3750 0.2000 0.8000
vt 0.3750 0.8000 0.2000
vt 0.3750 0.6000 0.4000
vt 0.3750 0.4000 0.6000
vt 0.4167 0.0000 1.0000
vt 0.4167 0.2000 0.8000
vt 0.4167 0.8000 0.2000
vt 0.4167 0.6000 0.4000
vt 0.4167 0.4000 0.6000
vt 0.4583 0.0000 1.0000
vt 0.4583 0.2000 0.8000
vt 0.4583 0.8000 0.2000
vt 0.4583 0.6000 0.4000
vt 0.4583 0.4000 0.6000
vt 0.5000 0.0000 1.0000
vt 0.5000 0.2000 0.8000
vt 0.5000 0.8000 0.2000
vt 0.5000 0.6000 0.4000
vt 0.5000 0.4000 0.6000
vt 0.5417 0.0000 1.0000
vt 0.5417 0.2000 0.8000
vt 0.5417 0.8000 0.2000
vt 0.5417 0.6000 0.4000
vt 0.5417 0.4000 0.6000
vt 0.5833 0.0000 1.0000
vt 0.5833 0.2000 0.8000
vt 0.5833 0.8000 0.2000
vt 0.5833 0.6000 0.4000
vt 0.5833 0.4000 0.6000
vt 0.6250 0.0000 1.0000
vt 0.6250 0.2000 0.8000
vt 0.6250 0.8000 0.2000
vt 0.6250 0.6000 0.4000
vt 0.6250 0.4000 0.6000
vt 0.6667 0.0000 1.0000
vt 0.6667 0.2000 0.8000
vt 0.6667 0.8000 0.2000
vt 0.6667 0.6000 0.4000
vt 0.6667 0.4000 0.6000
vt 0.7083 0.0000 1.0000
vt 0.7083 0.2000 0.8000
vt 0.7083 0.8000 0.2000
vt 0.7083 0.6000 0.4000
vt 0.7083 0.4000 0.6000
# 126 texture coords

o Cone001
g Cone001
s 8
f 1/1/1 2/2/2 3/3/3 
f 4/4/4 4/4/5 5/5/1 
f 6/6/3 4/4/4 5/5/1 
f 6/6/3 5/5/1 7/7/1 
f 8/8/3 6/6/3 7/7/1 
f 8/8/3 7/7/1 9/9/6 
f 10/10/3 8/8/3 9/9/6 
f 10/10/3 9/9/6 11/11/6 
f 3/3/3 10/10/3 11/11/6 
f 1/1/1 3/3/3 11/11/6 
f 2/2/2 12/12/7 13/13/8 
f 4/4/9 4/4/4 6/6/3 
f 14/14/8 4/4/9 6/6/3 
f 14/14/8 6/6/3 8/8/3 
f 15/15/8 14/14/8 8/8/3 
f 15/15/8 8/8/3 10/10/3 
f 16/16/8 15/15/8 10/10/3 
f 16/16/8 10/10/3 3/3/3 
f 13/13/8 16/16/8 3/3/3 
f 2/2/2 13/13/8 3/3/3 
f 12/12/7 17/17/10 18/18/11 
f 4/4/12 4/4/9 14/14/8 
f 19/19/11 4/4/12 14/14/8 
f 19/19/11 14/14/8 15/15/8 
f 20/20/11 19/19/11 15/15/8 
f 20/20/11 15/15/8 16/16/8 
f 21/21/11 20/20/11 16/16/8 
f 21/21/11 16/16/8 13/13/8 
f 18/18/11 21/21/11 13/13/8 
f 12/12/7 18/18/11 13/13/8 
f 17/17/10 22/22/13 23/23/14 
f 4/4/15 4/4/12 19/19/11 
f 24/24/14 4/4/15 19/19/11 
f 24/24/14 19/19/11 20/20/11 
f 25/25/14 24/24/14 20/20/11 
f 25/25/14 20/20/11 21/21/11 
f 26/26/14 25/25/14 21/21/11 
f 26/26/14 21/21/11 18/18/11 
f 23/23/14 26/26/14 18/18/11 
f 17/17/10 23/23/14 18/18/11 
f 22/22/13 27/27/16 28/28/17 
f 4/4/18 4/4/15 24/24/14 
f 29/29/17 4/4/18 24/24/14 
f 29/29/17 24/24/14 25/25/14 
f 30/30/17 29/29/17 25/25/14 
f 30/30/17 25/25/14 26/26/14 
f 31/31/17 30/30/17 26/26/14 
f 31/31/17 26/26/14 23/23/14 
f 28/28/17 31/31/17 23/23/14 
f 22/22/13 28/28/17 23/23/14 
f 27/27/16 32/32/19 33/33/20 
f 4/4/21 4/4/18 29/29/17 
f 34/34/20 4/4/21 29/29/17 
f 34/34/20 29/29/17 30/30/17 
f 35/35/20 34/34/20 30/30/17 
f 35/35/20 30/30/17 31/31/17 
f 36/36/20 35/35/20 31/31/17 
f 36/36/20 31/31/17 28/28/17 
f 33/33/20 36/36/20 28/28/17 
f 27/27/16 33/33/20 28/28/17 
f 32/37/19 37/38/22 38/39/23 
f 4/4/24 4/4/21 34/40/20 
f 39/41/23 4/4/24 34/40/20 
f 39/41/23 34/40/20 35/42/20 
f 40/43/23 39/41/23 35/42/20 
f 40/43/23 35/42/20 36/44/20 
f 41/45/23 40/43/23 36/44/20 
f 41/45/23 36/44/20 33/46/20 
f 38/39/23 41/45/23 33/46/20 
f 32/37/19 38/39/23 33/46/20 
f 37/38/22 42/47/25 43/48/26 
f 4/4/27 4/4/24 39/41/23 
f 44/49/26 4/4/27 39/41/23 
f 44/49/26 39/41/23 40/43/23 
f 45/50/26 44/49/26 40/43/23 
f 45/50/26 40/43/23 41/45/23 
f 46/51/26 45/50/26 41/45/23 
f 46/51/26 41/45/23 38/39/23 
f 43/48/26 46/51/26 38/39/23 
f 37/38/22 43/48/26 38/39/23 
f 42/47/25 47/52/28 48/53/29 
f 4/4/30 4/4/27 44/49/26 
f 49/54/29 4/4/30 44/49/26 
f 49/54/29 44/49/26 45/50/26 
f 50/55/29 49/54/29 45/50/26 
f 50/55/29 45/50/26 46/51/26 
f 51/56/29 50/55/29 46/51/26 
f 51/56/29 46/51/26 43/48/26 
f 48/53/29 51/56/29 43/48/26 
f 42/47/25 48/53/29 43/48/26 
f 47/52/28 52/57/31 53/58/32 
f 4/4/33 4/4/30 49/54/29 
f 54/59/32 4/4/33 49/54/29 
f 54/59/32 49/54/29 50/55/29 
f 55/60/32 54/59/32 50/55/29 
f 55/60/32 50/55/29 51/56/29 
f 56/61/32 55/60/32 51/56/29 
f 56/61/32 51/56/29 48/53/29 
f 53/58/32 56/61/32 48/53/29 
f 47/52/28 53/58/32 48/53/29 
f 52/57/31 57/62/34 58/63/35 
f 4/4/36 4/4/33 54/59/32 
f 59/64/35 4/4/36 54/59/32 
f 59/64/35 54/59/32 55/60/32 
f 60/65/35 59/64/35 55/60/32 
f 60/65/35 55/60/32 56/61/32 
f 61/66/35 60/65/35 56/61/32 
f 61/66/35 56/61/32 53/58/32 
f 58/63/35 61/66/35 53/58/32 
f 52/57/31 58/63/35 53/58/32 
f 57/62/34 62/67/37 63/68/37 
f 4/4/38 4/4/36 59/64/35 
f 64/69/37 4/4/38 59/64/35 
f 64/69/37 59/64/35 60/65/35 
f 65/70/37 64/69/37 60/65/35 
f 65/70/37 60/65/35 61/66/35 
f 66/71/37 65/70/37 61/66/35 
f 66/71/37 61/66/35 58/63/35 
f 63/68/37 66/71/37 58/63/35 
f 57/62/34 63/68/37 58/63/35 
f 62/67/37 67/72/39 68/73/40 
f 4/4/41 4/4/38 64/69/37 
f 69/74/40 4/4/41 64/69/37 
f 69/74/40 64/69/37 65/70/37 
f 70/75/40 69/74/40 65/70/37 
f 70/75/40 65/70/37 66/71/37 
f 71/76/40 70/75/40 66/71/37 
f 71/76/40 66/71/37 63/68/37 
f 68/73/40 71/76/40 63/68/37 
f 62/67/37 68/73/40 63/68/37 
f 67/72/39 72/77/42 73/78/43 
f 4/4/44 4/4/41 69/74/40 
f 74/79/43 4/4/44 69/74/40 
f 74/79/43 69/74/40 70/75/40 
f 75/80/43 74/79/43 70/75/40 
f 75/80/43 70/75/40 71/76/40 
f 76/81/43 75/80/43 71/76/40 
f 76/81/43 71/76/40 68/73/40 
f 73/78/43 76/81/43 68/73/40 
f 67/72/39 73/78/43 68/73/40 
f 72/77/42 77/82/45 78/83/46 
f 4/4/47 4/4/44 74/79/43 
f 79/84/46 4/4/47 74/79/43 
f 79/84/46 74/79/43 75/80/43 
f 80/85/46 79/84/46 75/80/43 
f 80/85/46 75/80/43 76/81/43 
f 81/86/46 80/85/46 76/81/43 
f 81/86/46 76/81/43 73/78/43 
f 78/83/46 81/86/46 73/78/43 
f 72/77/42 78/83/46 73/78/43 
f 77/82/45 82/87/48 83/88/49 
f 4/4/50 4/4/47 79/84/46 
f 84/89/49 4/4/50 79/84/46 
f 84/89/49 79/84/46 80/85/46 
f 85/90/49 84/89/49 80/85/46 
f 85/90/49 80/85/46 81/86/46 
f 86/91/49 85/90/49 81/86/46 
f 86/91/49 81/86/46 78/83/46 
f 83/88/49 86/91/49 78/83/46 
f 77/82/45 83/88/49 78/83/46 
f 82/87/48 87/92/51 88/93/52 
f 4/4/53 4/4/50 84/89/49 
f 89/94/52 4/4/53 84/89/49 
f 89/94/52 84/89/49 85/90/49 
f 90/95/52 89/94/52 85/90/49 
f 90/95/52 85/90/49 86/91/49 
f 91/96/52 90/95/52 86/91/49 
f 91/96/52 86/91/49 83/88/49 
f 88/93/52 91/96/52 83/88/49 
f 82/87/48 88/93/52 83/88/49 
f 87/92/51 92/97/54 93/98/55 
f 4/4/56 4/4/53 89/94/52 
f 94/99/55 4/4/56 89/94/52 
f 94/99/55 89/94/52 90/95/52 
f 95/100/55 94/99/55 90/95/52 
f 95/100/55 90/95/52 91/96/52 
f 96/101/55 95/100/55 91/96/52 
f 96/101/55 91/96/52 88/93/52 
f 93/98/55 96/101/55 88/93/52 
f 87/92/51 93/98/55 88/93/52 
f 92/97/54 97/102/57 98/103/58 
f 4/4/59 4/4/56 94/99/55 
f 99/104/58 4/4/59 94/99/55 
f 99/104/58 94/99/55 95/100/55 
f 100/105/58 99/104/58 95/100/55 
f 100/105/58 95/100/55 96/101/55 
f 101/106/58 100/105/58 96/101/55 
f 101/106/58 96/101/55 93/98/55 
f 98/103/58 101/106/58 93/98/55 
f 92/97/54 98/103/58 93/98/55 
f 97/102/57 102/107/60 103/108/61 
f 4/4/62 4/4/59 99/104/58 
f 104/109/61 4/4/62 99/104/58 
f 104/109/61 99/104/58 100/105/58 
f 105/110/61 104/109/61 100/105/58 
f 105/110/61 100/105/58 101/106/58 
f 106/111/61 105/110/61 101/106/58 
f 106/111/61 101/106/58 98/103/58 
f 103/108/61 106/111/61 98/103/58 
f 97/102/57 103/108/61 98/103/58 
f 102/107/60 107/112/63 108/113/64 
f 4/4/65 4/4/62 104/109/61 
f 109/114/64 4/4/65 104/109/61 
f 109/114/64 104/109/61 105/110/61 
f 110/115/64 109/114/64 105/110/61 
f 110/115/64 105/110/61 106/111/61 
f 111/116/64 110/115/64 106/111/61 
f 111/116/64 106/111/61 103/108/61 
f 108/113/64 111/116/64 103/108/61 
f 102/107/60 108/113/64 103/108/61 
f 107/112/63 112/117/66 113/118/67 
f 4/4/68 4/4/65 109/114/64 
f 114/119/67 4/4/68 109/114/64 
f 114/119/67 109/114/64 110/115/64 
f 115/120/67 114/119/67 110/115/64 
f 115/120/67 110/115/64 111/116/64 
f 116/121/67 115/120/67 111/116/64 
f 116/121/67 111/116/64 108/113/64 
f 113/118/67 116/121/67 108/113/64 
f 107/112/63 113/118/67 108/113/64 
f 112/117/66 117/122/69 118/123/70 
f 4/4/71 4/4/68 114/119/67 
f 119/124/70 4/4/71 114/119/67 
f 119/124/70 114/119/67 115/120/67 
f 120/125/70 119/124/70 115/120/67 
f 120/125/70 115/120/67 116/121/67 
f 121/126/70 120/125/70 116/121/67 
f 121/126/70 116/121/67 113/118/67 
f 118/123/70 121/126/70 113/118/67 
f 112/117/66 118/123/70 113/118/67 
f 117/122/69 1/1/1 11/11/6 
f 4/4/5 4/4/71 119/124/70 
f 5/5/1 4/4/5 119/124/70 
f 5/5/1 119/124/70 120/125/70 
f 7/7/1 5/5/1 120/125/70 
f 7/7/1 120/125/70 121/126/70 
f 9/9/6 7/7/1 121/126/70 
f 9/9/6 121/126/70 118/123/70 
f 11/11/6 9/9/6 118/123/70 
f 117/122/69 11/11/6 118/123/70 
s 1
f 4/4/72 4/4/72 4/4/72 
f 4/4/72 4/4/72 4/4/72 
f 4/4/72 4/4/72 4/4/72 
f 4/4/72 4/4/72 4/4/72 
f 4/4/72 4/4/72 4/4/72 
f 4/4/72 4/4/72 4/4/72 
f 4/4/72 4/4/72 4/4/72 
f 4/4/72 4/4/72 4/4/72 
f 4/4/72 4/4/72 4/4/72 
f 4/4/72 4/4/72 4/4/72 
f 4/4/72 4/4/72 4/4/72 
f 4/4/72 4/4/72 4/4/72 
f 4/4/72 4/4/72 4/4/72 
f 4/4/72 4/4/72 4/4/72 
f 4/4/72 4/4/72 4/4/72 
f 4/4/72 4/4/72 4/4/72 
f 4/4/72 4/4/72 4/4/72 
f 4/4/72 4/4/72 4/4/72 
f 4/4/72 4/4/72 4/4/72 
f 4/4/72 4/4/72 4/4/72 
f 4/4/72 4/4/72 4/4/72 
f 4/4/72 4/4/72 4/4/72 
# 262 faces

