# 3ds Max Wavefront OBJ Exporter v0.97b - (c)2007 guruware
# File Created: 21.11.2019 16:17:24

#
# object Cylinder001
#

v  0.0000 0.0000 -0.0000
v  1.4489 0.0000 -0.3882
v  1.5000 0.0000 -0.0000
v  1.2990 0.0000 -0.7500
v  1.0607 0.0000 -1.0607
v  0.7500 0.0000 -1.2990
v  0.3882 0.0000 -1.4489
v  0.0000 0.0000 -1.5000
v  -0.3882 0.0000 -1.4489
v  -0.7500 0.0000 -1.2990
v  -1.0607 0.0000 -1.0607
v  -1.2990 0.0000 -0.7500
v  -1.4489 0.0000 -0.3882
v  -1.5000 0.0000 -0.0000
v  -1.4489 0.0000 0.3882
v  -1.2990 0.0000 0.7500
v  -1.0607 0.0000 1.0607
v  -0.7500 0.0000 1.2990
v  -0.3882 0.0000 1.4489
v  -0.0000 0.0000 1.5000
v  0.3882 0.0000 1.4489
v  0.7500 0.0000 1.2990
v  1.0607 0.0000 1.0607
v  1.2990 0.0000 0.7500
v  1.4489 0.0000 0.3882
v  1.4489 18.0000 -0.3882
v  1.5000 18.0000 -0.0000
v  1.2990 18.0000 -0.7500
v  1.0607 18.0000 -1.0607
v  0.7500 18.0000 -1.2990
v  0.3882 18.0000 -1.4489
v  0.0000 18.0000 -1.5000
v  -0.3882 18.0000 -1.4489
v  -0.7500 18.0000 -1.2990
v  -1.0607 18.0000 -1.0607
v  -1.2990 18.0000 -0.7500
v  -1.4489 18.0000 -0.3882
v  -1.5000 18.0000 -0.0000
v  -1.4489 18.0000 0.3882
v  -1.2990 18.0000 0.7500
v  -1.0607 18.0000 1.0607
v  -0.7500 18.0000 1.2990
v  -0.3882 18.0000 1.4489
v  -0.0000 18.0000 1.5000
v  0.3882 18.0000 1.4489
v  0.7500 18.0000 1.2990
v  1.0607 18.0000 1.0607
v  1.2990 18.0000 0.7500
v  1.4489 18.0000 0.3882
v  0.0000 18.0000 -0.0000
# 50 vertices

vn 0.0000 -1.0000 -0.0000
vn 1.0000 0.0000 0.0000
vn 0.9659 0.0000 -0.2588
vn 0.8660 0.0000 -0.5000
vn 0.7071 0.0000 -0.7071
vn 0.5000 0.0000 -0.8660
vn 0.2588 0.0000 -0.9659
vn 0.0000 0.0000 -1.0000
vn -0.0000 0.0000 -1.0000
vn -0.2588 0.0000 -0.9659
vn -0.5000 0.0000 -0.8660
vn -0.7071 0.0000 -0.7071
vn -0.8660 0.0000 -0.5000
vn -0.9659 0.0000 -0.2588
vn -1.0000 0.0000 -0.0000
vn -0.9659 0.0000 0.2588
vn -0.8660 0.0000 0.5000
vn -0.7071 0.0000 0.7071
vn -0.5000 0.0000 0.8660
vn -0.2588 0.0000 0.9659
vn -0.0000 0.0000 1.0000
vn 0.2588 0.0000 0.9659
vn 0.5000 0.0000 0.8660
vn 0.7071 0.0000 0.7071
vn 0.8660 0.0000 0.5000
vn 0.9659 0.0000 0.2588
vn 0.0000 1.0000 -0.0000
# 27 vertex normals

vt 0.5000 0.0000 0.0000
vt 0.7917 0.0000 1.0000
vt 0.7500 0.0000 1.0000
vt 0.8333 0.0000 1.0000
vt 0.8750 0.0000 1.0000
vt 0.9167 0.0000 1.0000
vt 0.9583 0.0000 1.0000
vt 1.0000 0.0000 1.0000
vt 0.0417 0.0000 1.0000
vt -0.0000 0.0000 1.0000
vt 0.0833 0.0000 1.0000
vt 0.1250 0.0000 1.0000
vt 0.1667 0.0000 1.0000
vt 0.2083 0.0000 1.0000
vt 0.2500 0.0000 1.0000
vt 0.2917 0.0000 1.0000
vt 0.3333 0.0000 1.0000
vt 0.3750 0.0000 1.0000
vt 0.4167 0.0000 1.0000
vt 0.4583 0.0000 1.0000
vt 0.5000 0.0000 1.0000
vt 0.5417 0.0000 1.0000
vt 0.5833 0.0000 1.0000
vt 0.6250 0.0000 1.0000
vt 0.6667 0.0000 1.0000
vt 0.7083 0.0000 1.0000
vt 0.7917 1.0000 1.0000
vt 0.7500 1.0000 1.0000
vt 0.8333 1.0000 1.0000
vt 0.8750 1.0000 1.0000
vt 0.9167 1.0000 1.0000
vt 0.9583 1.0000 1.0000
vt 1.0000 1.0000 1.0000
vt 0.0417 1.0000 1.0000
vt -0.0000 1.0000 1.0000
vt 0.0833 1.0000 1.0000
vt 0.1250 1.0000 1.0000
vt 0.1667 1.0000 1.0000
vt 0.2083 1.0000 1.0000
vt 0.2500 1.0000 1.0000
vt 0.2917 1.0000 1.0000
vt 0.3333 1.0000 1.0000
vt 0.3750 1.0000 1.0000
vt 0.4167 1.0000 1.0000
vt 0.4583 1.0000 1.0000
vt 0.5000 1.0000 1.0000
vt 0.5417 1.0000 1.0000
vt 0.5833 1.0000 1.0000
vt 0.6250 1.0000 1.0000
vt 0.6667 1.0000 1.0000
vt 0.7083 1.0000 1.0000
vt 0.5000 1.0000 0.0000
# 52 texture coords

o Cylinder001
g Cylinder001
s 1
f 1/1/1 2/2/1 3/3/1 
f 1/1/1 4/4/1 2/2/1 
f 1/1/1 5/5/1 4/4/1 
f 1/1/1 6/6/1 5/5/1 
f 1/1/1 7/7/1 6/6/1 
f 1/1/1 8/8/1 7/7/1 
f 1/1/1 9/9/1 8/10/1 
f 1/1/1 10/11/1 9/9/1 
f 1/1/1 11/12/1 10/11/1 
f 1/1/1 12/13/1 11/12/1 
f 1/1/1 13/14/1 12/13/1 
f 1/1/1 14/15/1 13/14/1 
f 1/1/1 15/16/1 14/15/1 
f 1/1/1 16/17/1 15/16/1 
f 1/1/1 17/18/1 16/17/1 
f 1/1/1 18/19/1 17/18/1 
f 1/1/1 19/20/1 18/19/1 
f 1/1/1 20/21/1 19/20/1 
f 1/1/1 21/22/1 20/21/1 
f 1/1/1 22/23/1 21/22/1 
f 1/1/1 23/24/1 22/23/1 
f 1/1/1 24/25/1 23/24/1 
f 1/1/1 25/26/1 24/25/1 
f 1/1/1 3/3/1 25/26/1 
s 8
f 3/3/2 26/27/3 27/28/2 
f 3/3/2 2/2/3 26/27/3 
f 2/2/3 28/29/4 26/27/3 
f 2/2/3 4/4/4 28/29/4 
f 4/4/4 29/30/5 28/29/4 
f 4/4/4 5/5/5 29/30/5 
f 5/5/5 30/31/6 29/30/5 
f 5/5/5 6/6/6 30/31/6 
f 6/6/6 31/32/7 30/31/6 
f 6/6/6 7/7/7 31/32/7 
f 7/7/7 32/33/8 31/32/7 
f 7/7/7 8/8/9 32/33/8 
f 8/10/9 33/34/10 32/35/8 
f 8/10/9 9/9/10 33/34/10 
f 9/9/10 34/36/11 33/34/10 
f 9/9/10 10/11/11 34/36/11 
f 10/11/11 35/37/12 34/36/11 
f 10/11/11 11/12/12 35/37/12 
f 11/12/12 36/38/13 35/37/12 
f 11/12/12 12/13/13 36/38/13 
f 12/13/13 37/39/14 36/38/13 
f 12/13/13 13/14/14 37/39/14 
f 13/14/14 38/40/15 37/39/14 
f 13/14/14 14/15/15 38/40/15 
f 14/15/15 39/41/16 38/40/15 
f 14/15/15 15/16/16 39/41/16 
f 15/16/16 40/42/17 39/41/16 
f 15/16/16 16/17/17 40/42/17 
f 16/17/17 41/43/18 40/42/17 
f 16/17/17 17/18/18 41/43/18 
f 17/18/18 42/44/19 41/43/18 
f 17/18/18 18/19/19 42/44/19 
f 18/19/19 43/45/20 42/44/19 
f 18/19/19 19/20/20 43/45/20 
f 19/20/20 44/46/21 43/45/20 
f 19/20/20 20/21/21 44/46/21 
f 20/21/21 45/47/22 44/46/21 
f 20/21/21 21/22/22 45/47/22 
f 21/22/22 46/48/23 45/47/22 
f 21/22/22 22/23/23 46/48/23 
f 22/23/23 47/49/24 46/48/23 
f 22/23/23 23/24/24 47/49/24 
f 23/24/24 48/50/25 47/49/24 
f 23/24/24 24/25/25 48/50/25 
f 24/25/25 49/51/26 48/50/25 
f 24/25/25 25/26/26 49/51/26 
f 25/26/26 27/28/2 49/51/26 
f 25/26/26 3/3/2 27/28/2 
s 1
f 50/52/27 27/28/27 26/27/27 
f 50/52/27 26/27/27 28/29/27 
f 50/52/27 28/29/27 29/30/27 
f 50/52/27 29/30/27 30/31/27 
f 50/52/27 30/31/27 31/32/27 
f 50/52/27 31/32/27 32/33/27 
f 50/52/27 32/35/27 33/34/27 
f 50/52/27 33/34/27 34/36/27 
f 50/52/27 34/36/27 35/37/27 
f 50/52/27 35/37/27 36/38/27 
f 50/52/27 36/38/27 37/39/27 
f 50/52/27 37/39/27 38/40/27 
f 50/52/27 38/40/27 39/41/27 
f 50/52/27 39/41/27 40/42/27 
f 50/52/27 40/42/27 41/43/27 
f 50/52/27 41/43/27 42/44/27 
f 50/52/27 42/44/27 43/45/27 
f 50/52/27 43/45/27 44/46/27 
f 50/52/27 44/46/27 45/47/27 
f 50/52/27 45/47/27 46/48/27 
f 50/52/27 46/48/27 47/49/27 
f 50/52/27 47/49/27 48/50/27 
f 50/52/27 48/50/27 49/51/27 
f 50/52/27 49/51/27 27/28/27 
# 96 faces

