# 3ds Max Wavefront OBJ Exporter v0.97b - (c)2007 guruware
# File Created: 30.11.2019 09:53:01

#
# object elevator_Cube_031
#

v  -4.0160 94.9460 3.7583
v  -4.0160 94.9460 -4.2417
v  -4.0160 0.4460 -4.2417
v  -4.0160 0.4460 3.7583
v  3.9840 94.9460 -4.2417
v  3.9840 0.4460 -4.2417
v  3.9840 94.9460 3.7583
v  3.9840 0.4460 3.7583
# 8 vertices

vn -1.0000 0.0000 -0.0000
vn 0.0000 0.0000 -1.0000
vn 1.0000 0.0000 -0.0000
vn 0.0000 0.0000 1.0000
vn 0.0000 -1.0000 -0.0000
vn 0.0000 1.0000 -0.0000
# 6 vertex normals

vt 0.6250 0.0000 0.0000
vt 0.6250 0.2500 0.0000
vt 0.3750 0.2500 0.0000
vt 0.3750 0.0000 0.0000
vt 0.6250 0.5000 0.0000
vt 0.3750 0.5000 0.0000
vt 0.6250 0.7500 0.0000
vt 0.3750 0.7500 0.0000
vt 0.6250 1.0000 0.0000
vt 0.3750 1.0000 0.0000
vt 0.1250 0.7500 0.0000
vt 0.1250 0.5000 0.0000
vt 0.8750 0.5000 0.0000
vt 0.8750 0.7500 0.0000
# 14 texture coords

o elevator_Cube_031
g elevator_Cube_031
s off
f 1/1/1 2/2/1 3/3/1 
f 3/3/1 4/4/1 1/1/1 
f 2/2/2 5/5/2 6/6/2 
f 6/6/2 3/3/2 2/2/2 
f 5/5/3 7/7/3 8/8/3 
f 8/8/3 6/6/3 5/5/3 
f 7/7/4 1/9/4 4/10/4 
f 4/10/4 8/8/4 7/7/4 
f 6/6/5 8/8/5 4/11/5 
f 4/11/5 3/12/5 6/6/5 
f 2/13/6 1/14/6 7/7/6 
f 7/7/6 5/5/6 2/13/6 
# 12 faces

