# 3ds Max Wavefront OBJ Exporter v0.97b - (c)2007 guruware
# File Created: 30.11.2019 09:28:20

#
# object Box001
#

v  39.0000 5.0000 29.0000
v  39.0000 5.0000 -29.0000
v  -39.0000 5.0000 -29.0000
v  -39.0000 5.0000 29.0000
v  39.0000 1.0000 30.0000
v  39.0000 4.0000 30.0000
v  -39.0000 4.0000 30.0000
v  -39.0000 1.0000 30.0000
v  40.0000 1.0000 -29.0000
v  40.0000 4.0000 -29.0000
v  40.0000 4.0000 29.0000
v  40.0000 1.0000 29.0000
v  -39.0000 1.0000 -30.0000
v  -39.0000 4.0000 -30.0000
v  39.0000 4.0000 -30.0000
v  39.0000 1.0000 -30.0000
v  -40.0000 1.0000 29.0000
v  -40.0000 4.0000 29.0000
v  -40.0000 4.0000 -29.0000
v  -40.0000 1.0000 -29.0000
v  -39.4375 4.9375 29.0000
v  -39.4063 4.8750 29.4063
v  -39.0000 4.9375 29.4375
v  -39.3438 4.7188 29.7188
v  -39.0000 4.7500 29.7500
v  -39.7500 4.7500 29.0000
v  -39.7188 4.7188 29.3438
v  -39.6250 4.6250 29.6250
v  39.0000 4.9375 29.4375
v  39.4063 4.8750 29.4063
v  39.4375 4.9375 29.0000
v  39.7188 4.7188 29.3438
v  39.7500 4.7500 29.0000
v  39.0000 4.7500 29.7500
v  39.3438 4.7188 29.7188
v  39.6250 4.6250 29.6250
v  39.4375 4.9375 -29.0000
v  39.4063 4.8750 -29.4063
v  39.0000 4.9375 -29.4375
v  39.3438 4.7188 -29.7188
v  39.0000 4.7500 -29.7500
v  39.7500 4.7500 -29.0000
v  39.7188 4.7188 -29.3438
v  39.6250 4.6250 -29.6250
v  -39.0000 4.9375 -29.4375
v  -39.4063 4.8750 -29.4063
v  -39.4375 4.9375 -29.0000
v  -39.7188 4.7188 -29.3438
v  -39.7500 4.7500 -29.0000
v  -39.0000 4.7500 -29.7500
v  -39.3438 4.7188 -29.7188
v  -39.6250 4.6250 -29.6250
v  39.4375 4.0000 29.9375
v  39.4063 4.4063 29.8750
v  39.0000 4.4375 29.9375
v  39.7500 4.0000 29.7500
v  39.7188 4.3437 29.7188
v  -39.0000 4.4375 29.9375
v  -39.4063 4.4063 29.8750
v  -39.4375 4.0000 29.9375
v  -39.7188 4.3437 29.7188
v  -39.7500 4.0000 29.7500
v  39.9375 4.0000 -29.4375
v  39.8750 4.4063 -29.4063
v  39.9375 4.4375 -29.0000
v  39.7500 4.0000 -29.7500
v  39.7188 4.3437 -29.7188
v  39.9375 4.4375 29.0000
v  39.8750 4.4063 29.4063
v  39.9375 4.0000 29.4375
v  -39.4375 4.0000 -29.9375
v  -39.4063 4.4063 -29.8750
v  -39.0000 4.4375 -29.9375
v  -39.7500 4.0000 -29.7500
v  -39.7188 4.3437 -29.7188
v  39.0000 4.4375 -29.9375
v  39.4063 4.4063 -29.8750
v  39.4375 4.0000 -29.9375
v  -39.9375 4.0000 29.4375
v  -39.8750 4.4063 29.4063
v  -39.9375 4.4375 29.0000
v  -39.9375 4.4375 -29.0000
v  -39.8750 4.4063 -29.4063
v  -39.9375 4.0000 -29.4375
v  39.4375 1.0000 29.9375
v  39.7500 1.0000 29.7500
v  -39.4375 1.0000 29.9375
v  -39.7500 1.0000 29.7500
v  39.9375 1.0000 -29.4375
v  39.7500 1.0000 -29.7500
v  39.9375 1.0000 29.4375
v  -39.4375 1.0000 -29.9375
v  -39.7500 1.0000 -29.7500
v  39.4375 1.0000 -29.9375
v  -39.9375 1.0000 29.4375
v  -39.9375 1.0000 -29.4375
# 96 vertices

vn 0.0731 0.9946 0.0731
vn 0.0731 0.9946 -0.0731
vn -0.0731 0.9946 -0.0731
vn -0.0731 0.9946 0.0731
vn 0.0709 0.0000 0.9975
vn 0.0731 0.0731 0.9946
vn -0.0731 0.0731 0.9946
vn -0.0709 0.0000 0.9975
vn 0.9975 0.0000 -0.0709
vn 0.9946 0.0731 -0.0731
vn 0.9946 0.0731 0.0731
vn 0.9975 0.0000 0.0709
vn -0.0709 0.0000 -0.9975
vn -0.0731 0.0731 -0.9946
vn 0.0731 0.0731 -0.9946
vn 0.0709 0.0000 -0.9975
vn -0.9975 0.0000 0.0709
vn -0.9946 0.0731 0.0731
vn -0.9946 0.0731 -0.0731
vn -0.9975 0.0000 -0.0709
vn -0.3295 0.9409 0.0778
vn -0.3146 0.8956 0.3146
vn -0.0778 0.9409 0.3295
vn -0.2708 0.6807 0.6807
vn -0.0633 0.7057 0.7057
vn -0.7057 0.7057 0.0633
vn -0.6807 0.6807 0.2708
vn -0.5774 0.5773 0.5774
vn 0.0778 0.9409 0.3295
vn 0.3146 0.8956 0.3146
vn 0.3295 0.9409 0.0778
vn 0.6807 0.6807 0.2708
vn 0.7057 0.7057 0.0633
vn 0.0633 0.7057 0.7057
vn 0.2708 0.6807 0.6807
vn 0.5774 0.5773 0.5774
vn 0.3295 0.9409 -0.0778
vn 0.3146 0.8956 -0.3146
vn 0.0778 0.9409 -0.3295
vn 0.2708 0.6807 -0.6807
vn 0.0633 0.7057 -0.7057
vn 0.7057 0.7057 -0.0633
vn 0.6807 0.6807 -0.2708
vn 0.5774 0.5773 -0.5774
vn -0.0778 0.9409 -0.3295
vn -0.3146 0.8956 -0.3146
vn -0.3295 0.9409 -0.0778
vn -0.6807 0.6807 -0.2708
vn -0.7057 0.7057 -0.0633
vn -0.0633 0.7057 -0.7057
vn -0.2708 0.6807 -0.6807
vn -0.5774 0.5773 -0.5774
vn 0.3295 0.0778 0.9409
vn 0.3146 0.3146 0.8956
vn 0.0778 0.3295 0.9409
vn 0.7057 0.0633 0.7057
vn 0.6807 0.2708 0.6807
vn -0.0778 0.3295 0.9409
vn -0.3146 0.3146 0.8956
vn -0.3295 0.0778 0.9409
vn -0.6807 0.2708 0.6807
vn -0.7057 0.0633 0.7057
vn 0.9409 0.0778 -0.3295
vn 0.8956 0.3146 -0.3146
vn 0.9409 0.3295 -0.0778
vn 0.7057 0.0633 -0.7057
vn 0.6807 0.2708 -0.6807
vn 0.9409 0.3295 0.0778
vn 0.8956 0.3146 0.3146
vn 0.9409 0.0778 0.3295
vn -0.3295 0.0778 -0.9409
vn -0.3146 0.3146 -0.8956
vn -0.0778 0.3295 -0.9409
vn -0.7057 0.0633 -0.7057
vn -0.6807 0.2708 -0.6807
vn 0.0778 0.3295 -0.9409
vn 0.3146 0.3146 -0.8956
vn 0.3295 0.0778 -0.9409
vn -0.9409 0.0778 0.3295
vn -0.8956 0.3146 0.3146
vn -0.9409 0.3295 0.0778
vn -0.9409 0.3295 -0.0778
vn -0.8956 0.3146 -0.3146
vn -0.9409 0.0778 -0.3295
vn 0.3346 0.0000 0.9424
vn 0.7071 0.0000 0.7071
vn -0.3346 0.0000 0.9424
vn -0.7071 0.0000 0.7071
vn 0.9424 0.0000 -0.3346
vn 0.7071 0.0000 -0.7071
vn 0.9424 0.0000 0.3346
vn -0.3346 0.0000 -0.9424
vn -0.7071 0.0000 -0.7071
vn 0.3346 0.0000 -0.9424
vn -0.9424 0.0000 0.3346
vn -0.9424 0.0000 -0.3346
# 96 vertex normals

vt 0.9875 0.0167 0.0000
vt 0.9875 0.9833 0.0000
vt 0.0125 0.9833 0.0000
vt 0.0125 0.0167 0.0000
vt 0.9875 0.2000 0.0000
vt 0.9875 0.8000 0.0000
vt 0.0125 0.8000 0.0000
vt 0.0125 0.2000 0.0000
vt 0.9833 0.2000 0.0000
vt 0.9833 0.8000 0.0000
vt 0.0167 0.8000 0.0000
vt 0.0167 0.2000 0.0000
vt 0.0063 0.0167 0.0000
vt 0.0063 0.0083 0.0000
vt 0.0125 0.0083 0.0000
vt 0.0063 0.0000 0.0000
vt 0.0125 0.0000 0.0000
vt 0.0000 0.0167 0.0000
vt 0.0000 0.0083 0.0000
vt 0.0000 0.0000 0.0000
vt 0.9875 0.0083 0.0000
vt 0.9937 0.0083 0.0000
vt 0.9937 0.0167 0.0000
vt 1.0000 0.0083 0.0000
vt 1.0000 0.0167 0.0000
vt 0.9875 0.0000 0.0000
vt 0.9937 0.0000 0.0000
vt 1.0000 0.0000 0.0000
vt 0.9937 0.9833 0.0000
vt 0.9937 0.9917 0.0000
vt 0.9875 0.9917 0.0000
vt 0.9937 1.0000 0.0000
vt 0.9875 1.0000 0.0000
vt 1.0000 0.9833 0.0000
vt 1.0000 0.9917 0.0000
vt 1.0000 1.0000 0.0000
vt 0.0125 0.9917 0.0000
vt 0.0062 0.9917 0.0000
vt 0.0062 0.9833 0.0000
vt 0.0000 0.9917 0.0000
vt 0.0000 0.9833 0.0000
vt 0.0125 1.0000 0.0000
vt 0.0063 1.0000 0.0000
vt 0.0000 1.0000 0.0000
vt 0.9937 0.8000 0.0000
vt 0.9937 0.9000 0.0000
vt 0.9875 0.9000 0.0000
vt 1.0000 0.8000 0.0000
vt 1.0000 0.9000 0.0000
vt 0.0125 0.9000 0.0000
vt 0.0062 0.9000 0.0000
vt 0.0062 0.8000 0.0000
vt 0.0000 0.9000 0.0000
vt 0.0000 0.8000 0.0000
vt 0.9917 0.8000 0.0000
vt 0.9917 0.9000 0.0000
vt 0.9833 0.9000 0.0000
vt 0.9917 1.0000 0.0000
vt 0.9833 1.0000 0.0000
vt 0.0167 0.9000 0.0000
vt 0.0083 0.9000 0.0000
vt 0.0083 0.8000 0.0000
vt 0.0167 1.0000 0.0000
vt 0.0083 1.0000 0.0000
vt 0.9937 0.2000 0.0000
vt 1.0000 0.2000 0.0000
vt 0.0063 0.2000 0.0000
vt 0.0000 0.2000 0.0000
vt 0.9917 0.2000 0.0000
vt 0.0083 0.2000 0.0000
# 70 texture coords

o Box001
g Box001
s 1
f 1/1/1 2/2/2 3/3/3 
f 3/3/3 4/4/4 1/1/1 
f 5/5/5 6/6/6 7/7/7 
f 7/7/7 8/8/8 5/5/5 
f 9/9/9 10/10/10 11/11/11 
f 11/11/11 12/12/12 9/9/9 
f 13/5/13 14/6/14 15/7/15 
f 15/7/15 16/8/16 13/5/13 
f 17/9/17 18/10/18 19/11/19 
f 19/11/19 20/12/20 17/9/17 
f 4/4/4 21/13/21 22/14/22 
f 22/14/22 23/15/23 4/4/4 
f 23/15/23 22/14/22 24/16/24 
f 24/16/24 25/17/25 23/15/23 
f 21/13/21 26/18/26 27/19/27 
f 27/19/27 22/14/22 21/13/21 
f 22/14/22 27/19/27 28/20/28 
f 28/20/28 24/16/24 22/14/22 
f 1/1/1 29/21/29 30/22/30 
f 30/22/30 31/23/31 1/1/1 
f 31/23/31 30/22/30 32/24/32 
f 32/24/32 33/25/33 31/23/31 
f 29/21/29 34/26/34 35/27/35 
f 35/27/35 30/22/30 29/21/29 
f 30/22/30 35/27/35 36/28/36 
f 36/28/36 32/24/32 30/22/30 
f 2/2/2 37/29/37 38/30/38 
f 38/30/38 39/31/39 2/2/2 
f 39/31/39 38/30/38 40/32/40 
f 40/32/40 41/33/41 39/31/39 
f 37/29/37 42/34/42 43/35/43 
f 43/35/43 38/30/38 37/29/37 
f 38/30/38 43/35/43 44/36/44 
f 44/36/44 40/32/40 38/30/38 
f 3/3/3 45/37/45 46/38/46 
f 46/38/46 47/39/47 3/3/3 
f 47/39/47 46/38/46 48/40/48 
f 48/40/48 49/41/49 47/39/47 
f 45/37/45 50/42/50 51/43/51 
f 51/43/51 46/38/46 45/37/45 
f 46/38/46 51/43/51 52/44/52 
f 52/44/52 48/40/48 46/38/46 
f 6/6/6 53/45/53 54/46/54 
f 54/46/54 55/47/55 6/6/6 
f 55/47/55 54/46/54 35/32/35 
f 35/32/35 34/33/34 55/47/55 
f 53/45/53 56/48/56 57/49/57 
f 57/49/57 54/46/54 53/45/53 
f 54/46/54 57/49/57 36/36/36 
f 36/36/36 35/32/35 54/46/54 
f 7/7/7 58/50/58 59/51/59 
f 59/51/59 60/52/60 7/7/7 
f 60/52/60 59/51/59 61/53/61 
f 61/53/61 62/54/62 60/52/60 
f 58/50/58 25/42/25 24/43/24 
f 24/43/24 59/51/59 58/50/58 
f 59/51/59 24/43/24 28/44/28 
f 28/44/28 61/53/61 59/51/59 
f 10/10/10 63/55/63 64/56/64 
f 64/56/64 65/57/65 10/10/10 
f 65/57/65 64/56/64 43/58/43 
f 43/58/43 42/59/42 65/57/65 
f 63/55/63 66/48/66 67/49/67 
f 67/49/67 64/56/64 63/55/63 
f 64/56/64 67/49/67 44/36/44 
f 44/36/44 43/58/43 64/56/64 
f 11/11/11 68/60/68 69/61/69 
f 69/61/69 70/62/70 11/11/11 
f 70/62/70 69/61/69 57/53/57 
f 57/53/57 56/54/56 70/62/70 
f 68/60/68 33/63/33 32/64/32 
f 32/64/32 69/61/69 68/60/68 
f 69/61/69 32/64/32 36/44/36 
f 36/44/36 57/53/57 69/61/69 
f 14/6/14 71/45/71 72/46/72 
f 72/46/72 73/47/73 14/6/14 
f 73/47/73 72/46/72 51/32/51 
f 51/32/51 50/33/50 73/47/73 
f 71/45/71 74/48/74 75/49/75 
f 75/49/75 72/46/72 71/45/71 
f 72/46/72 75/49/75 52/36/52 
f 52/36/52 51/32/51 72/46/72 
f 15/7/15 76/50/76 77/51/77 
f 77/51/77 78/52/78 15/7/15 
f 78/52/78 77/51/77 67/53/67 
f 67/53/67 66/54/66 78/52/78 
f 76/50/76 41/42/41 40/43/40 
f 40/43/40 77/51/77 76/50/76 
f 77/51/77 40/43/40 44/44/44 
f 44/44/44 67/53/67 77/51/77 
f 18/10/18 79/55/79 80/56/80 
f 80/56/80 81/57/81 18/10/18 
f 81/57/81 80/56/80 27/58/27 
f 27/58/27 26/59/26 81/57/81 
f 79/55/79 62/48/62 61/49/61 
f 61/49/61 80/56/80 79/55/79 
f 80/56/80 61/49/61 28/36/28 
f 28/36/28 27/58/27 80/56/80 
f 19/11/19 82/60/82 83/61/83 
f 83/61/83 84/62/84 19/11/19 
f 84/62/84 83/61/83 75/53/75 
f 75/53/75 74/54/74 84/62/84 
f 82/60/82 49/63/49 48/64/48 
f 48/64/48 83/61/83 82/60/82 
f 83/61/83 48/64/48 52/44/52 
f 52/44/52 75/53/75 83/61/83 
f 1/1/1 4/4/4 23/15/23 
f 23/15/23 29/21/29 1/1/1 
f 29/21/29 23/15/23 25/17/25 
f 25/17/25 34/26/34 29/21/29 
f 2/2/2 1/1/1 31/23/31 
f 31/23/31 37/29/37 2/2/2 
f 37/29/37 31/23/31 33/25/33 
f 33/25/33 42/34/42 37/29/37 
f 3/3/3 2/2/2 39/31/39 
f 39/31/39 45/37/45 3/3/3 
f 45/37/45 39/31/39 41/33/41 
f 41/33/41 50/42/50 45/37/45 
f 4/4/4 3/3/3 47/39/47 
f 47/39/47 21/13/21 4/4/4 
f 21/13/21 47/39/47 49/41/49 
f 49/41/49 26/18/26 21/13/21 
f 6/6/6 5/5/5 85/65/85 
f 85/65/85 53/45/53 6/6/6 
f 53/45/53 85/65/85 86/66/86 
f 86/66/86 56/48/56 53/45/53 
f 7/7/7 6/6/6 55/47/55 
f 55/47/55 58/50/58 7/7/7 
f 58/50/58 55/47/55 34/33/34 
f 34/33/34 25/42/25 58/50/58 
f 8/8/8 7/7/7 60/52/60 
f 60/52/60 87/67/87 8/8/8 
f 87/67/87 60/52/60 62/54/62 
f 62/54/62 88/68/88 87/67/87 
f 10/10/10 9/9/9 89/69/89 
f 89/69/89 63/55/63 10/10/10 
f 63/55/63 89/69/89 90/66/90 
f 90/66/90 66/48/66 63/55/63 
f 11/11/11 10/10/10 65/57/65 
f 65/57/65 68/60/68 11/11/11 
f 68/60/68 65/57/65 42/59/42 
f 42/59/42 33/63/33 68/60/68 
f 12/12/12 11/11/11 70/62/70 
f 70/62/70 91/70/91 12/12/12 
f 91/70/91 70/62/70 56/54/56 
f 56/54/56 86/68/86 91/70/91 
f 14/6/14 13/5/13 92/65/92 
f 92/65/92 71/45/71 14/6/14 
f 71/45/71 92/65/92 93/66/93 
f 93/66/93 74/48/74 71/45/71 
f 15/7/15 14/6/14 73/47/73 
f 73/47/73 76/50/76 15/7/15 
f 76/50/76 73/47/73 50/33/50 
f 50/33/50 41/42/41 76/50/76 
f 16/8/16 15/7/15 78/52/78 
f 78/52/78 94/67/94 16/8/16 
f 94/67/94 78/52/78 66/54/66 
f 66/54/66 90/68/90 94/67/94 
f 18/10/18 17/9/17 95/69/95 
f 95/69/95 79/55/79 18/10/18 
f 79/55/79 95/69/95 88/66/88 
f 88/66/88 62/48/62 79/55/79 
f 19/11/19 18/10/18 81/57/81 
f 81/57/81 82/60/82 19/11/19 
f 82/60/82 81/57/81 26/59/26 
f 26/59/26 49/63/49 82/60/82 
f 20/12/20 19/11/19 84/62/84 
f 84/62/84 96/70/96 20/12/20 
f 96/70/96 84/62/84 74/54/74 
f 74/54/74 93/68/93 96/70/96 
# 170 faces

