# 3ds Max Wavefront OBJ Exporter v0.97b - (c)2007 guruware
# File Created: 30.11.2019 10:01:59

#
# object bridge2_Cube_037
#

v  0.0177 1.1154 0.9991
v  0.0177 1.1154 -1.0009
v  0.0177 -0.8846 -1.0009
v  0.0177 -0.8846 0.9991
v  21.0177 1.1154 -1.0009
v  21.0177 -0.8846 -1.0009
v  21.0177 1.1154 0.9991
v  21.0177 -0.8846 0.9991
# 8 vertices

vn -1.0000 0.0000 -0.0000
vn 0.0000 0.0000 -1.0000
vn 1.0000 0.0000 -0.0000
vn 0.0000 0.0000 1.0000
vn 0.0000 -1.0000 -0.0000
vn 0.0000 1.0000 -0.0000
# 6 vertex normals

vt 0.6250 0.0000 0.0000
vt 0.6250 0.2500 0.0000
vt 0.3750 0.2500 0.0000
vt 0.3750 0.0000 0.0000
vt 0.6250 0.5000 0.0000
vt 0.3750 0.5000 0.0000
vt 0.6250 0.7500 0.0000
vt 0.3750 0.7500 0.0000
vt 0.6250 1.0000 0.0000
vt 0.3750 1.0000 0.0000
vt 0.1250 0.7500 0.0000
vt 0.1250 0.5000 0.0000
vt 0.8750 0.5000 0.0000
vt 0.8750 0.7500 0.0000
# 14 texture coords

o bridge2_Cube_037
g bridge2_Cube_037
s off
f 1/1/1 2/2/1 3/3/1 
f 3/3/1 4/4/1 1/1/1 
f 2/2/2 5/5/2 6/6/2 
f 6/6/2 3/3/2 2/2/2 
f 5/5/3 7/7/3 8/8/3 
f 8/8/3 6/6/3 5/5/3 
f 7/7/4 1/9/4 4/10/4 
f 4/10/4 8/8/4 7/7/4 
f 6/6/5 8/8/5 4/11/5 
f 4/11/5 3/12/5 6/6/5 
f 2/13/6 1/14/6 7/7/6 
f 7/7/6 5/5/6 2/13/6 
# 12 faces

