# 3ds Max Wavefront OBJ Exporter v0.97b - (c)2007 guruware
# File Created: 21.11.2019 13:54:05

#
# object Cylinder001
#

v  0.0000 0.0000 -0.0000
v  2.8191 0.0000 -1.0261
v  3.0000 0.0000 -0.0000
v  2.2981 0.0000 -1.9284
v  1.5000 0.0000 -2.5981
v  0.5209 0.0000 -2.9544
v  -0.5209 0.0000 -2.9544
v  -1.5000 0.0000 -2.5981
v  -2.2981 0.0000 -1.9284
v  -2.8191 0.0000 -1.0261
v  -3.0000 0.0000 -0.0000
v  -2.8191 0.0000 1.0261
v  -2.2981 0.0000 1.9284
v  -1.5000 0.0000 2.5981
v  -0.5209 0.0000 2.9544
v  0.5209 0.0000 2.9544
v  1.5000 0.0000 2.5981
v  2.2981 0.0000 1.9284
v  2.8191 0.0000 1.0261
v  2.8191 25.0000 -1.0261
v  3.0000 25.0000 -0.0000
v  2.2981 25.0000 -1.9284
v  1.5000 25.0000 -2.5981
v  0.5209 25.0000 -2.9544
v  -0.5209 25.0000 -2.9544
v  -1.5000 25.0000 -2.5981
v  -2.2981 25.0000 -1.9284
v  -2.8191 25.0000 -1.0261
v  -3.0000 25.0000 -0.0000
v  -2.8191 25.0000 1.0261
v  -2.2981 25.0000 1.9284
v  -1.5000 25.0000 2.5981
v  -0.5209 25.0000 2.9544
v  0.5209 25.0000 2.9544
v  1.5000 25.0000 2.5981
v  2.2981 25.0000 1.9284
v  2.8191 25.0000 1.0261
v  0.0000 25.0000 -0.0000
# 38 vertices

vn 0.0000 -1.0000 -0.0000
vn 1.0000 0.0000 0.0000
vn 0.9397 0.0000 -0.3420
vn 0.7660 0.0000 -0.6428
vn 0.5000 0.0000 -0.8660
vn 0.1736 0.0000 -0.9848
vn -0.1736 0.0000 -0.9848
vn -0.5000 0.0000 -0.8660
vn -0.7660 0.0000 -0.6428
vn -0.9397 0.0000 -0.3420
vn -1.0000 0.0000 0.0000
vn -1.0000 0.0000 -0.0000
vn -0.9397 0.0000 0.3420
vn -0.7660 0.0000 0.6428
vn -0.5000 0.0000 0.8660
vn -0.1736 0.0000 0.9848
vn 0.1736 0.0000 0.9848
vn 0.5000 0.0000 0.8660
vn 0.7660 0.0000 0.6428
vn 0.9397 0.0000 0.3420
vn 0.0000 1.0000 -0.0000
# 21 vertex normals

vt 0.5000 0.0000 0.0000
vt 0.8056 0.0000 1.0000
vt 0.7500 0.0000 1.0000
vt 0.8611 0.0000 1.0000
vt 0.9167 0.0000 1.0000
vt 0.9722 0.0000 1.0000
vt 0.0278 0.0000 1.0000
vt -0.0278 0.0000 1.0000
vt 0.0833 0.0000 1.0000
vt 0.1389 0.0000 1.0000
vt 0.1944 0.0000 1.0000
vt 0.2500 0.0000 1.0000
vt 0.3056 0.0000 1.0000
vt 0.3611 0.0000 1.0000
vt 0.4167 0.0000 1.0000
vt 0.4722 0.0000 1.0000
vt 0.5278 0.0000 1.0000
vt 0.5833 0.0000 1.0000
vt 0.6389 0.0000 1.0000
vt 0.6944 0.0000 1.0000
vt 0.8056 1.0000 1.0000
vt 0.7500 1.0000 1.0000
vt 0.8611 1.0000 1.0000
vt 0.9167 1.0000 1.0000
vt 0.9722 1.0000 1.0000
vt 0.0278 1.0000 1.0000
vt -0.0278 1.0000 1.0000
vt 0.0833 1.0000 1.0000
vt 0.1389 1.0000 1.0000
vt 0.1944 1.0000 1.0000
vt 0.2500 1.0000 1.0000
vt 0.3056 1.0000 1.0000
vt 0.3611 1.0000 1.0000
vt 0.4167 1.0000 1.0000
vt 0.4722 1.0000 1.0000
vt 0.5278 1.0000 1.0000
vt 0.5833 1.0000 1.0000
vt 0.6389 1.0000 1.0000
vt 0.6944 1.0000 1.0000
vt 0.5000 1.0000 0.0000
# 40 texture coords

o Cylinder001
g Cylinder001
s 1
f 1/1/1 2/2/1 3/3/1 
f 1/1/1 4/4/1 2/2/1 
f 1/1/1 5/5/1 4/4/1 
f 1/1/1 6/6/1 5/5/1 
f 1/1/1 7/7/1 6/8/1 
f 1/1/1 8/9/1 7/7/1 
f 1/1/1 9/10/1 8/9/1 
f 1/1/1 10/11/1 9/10/1 
f 1/1/1 11/12/1 10/11/1 
f 1/1/1 12/13/1 11/12/1 
f 1/1/1 13/14/1 12/13/1 
f 1/1/1 14/15/1 13/14/1 
f 1/1/1 15/16/1 14/15/1 
f 1/1/1 16/17/1 15/16/1 
f 1/1/1 17/18/1 16/17/1 
f 1/1/1 18/19/1 17/18/1 
f 1/1/1 19/20/1 18/19/1 
f 1/1/1 3/3/1 19/20/1 
s 8
f 3/3/2 20/21/3 21/22/2 
f 3/3/2 2/2/3 20/21/3 
f 2/2/3 22/23/4 20/21/3 
f 2/2/3 4/4/4 22/23/4 
f 4/4/4 23/24/5 22/23/4 
f 4/4/4 5/5/5 23/24/5 
f 5/5/5 24/25/6 23/24/5 
f 5/5/5 6/6/6 24/25/6 
f 6/8/6 25/26/7 24/27/6 
f 6/8/6 7/7/7 25/26/7 
f 7/7/7 26/28/8 25/26/7 
f 7/7/7 8/9/8 26/28/8 
f 8/9/8 27/29/9 26/28/8 
f 8/9/8 9/10/9 27/29/9 
f 9/10/9 28/30/10 27/29/9 
f 9/10/9 10/11/10 28/30/10 
f 10/11/10 29/31/11 28/30/10 
f 10/11/10 11/12/12 29/31/11 
f 11/12/12 30/32/13 29/31/11 
f 11/12/12 12/13/13 30/32/13 
f 12/13/13 31/33/14 30/32/13 
f 12/13/13 13/14/14 31/33/14 
f 13/14/14 32/34/15 31/33/14 
f 13/14/14 14/15/15 32/34/15 
f 14/15/15 33/35/16 32/34/15 
f 14/15/15 15/16/16 33/35/16 
f 15/16/16 34/36/17 33/35/16 
f 15/16/16 16/17/17 34/36/17 
f 16/17/17 35/37/18 34/36/17 
f 16/17/17 17/18/18 35/37/18 
f 17/18/18 36/38/19 35/37/18 
f 17/18/18 18/19/19 36/38/19 
f 18/19/19 37/39/20 36/38/19 
f 18/19/19 19/20/20 37/39/20 
f 19/20/20 21/22/2 37/39/20 
f 19/20/20 3/3/2 21/22/2 
s 1
f 38/40/21 21/22/21 20/21/21 
f 38/40/21 20/21/21 22/23/21 
f 38/40/21 22/23/21 23/24/21 
f 38/40/21 23/24/21 24/25/21 
f 38/40/21 24/27/21 25/26/21 
f 38/40/21 25/26/21 26/28/21 
f 38/40/21 26/28/21 27/29/21 
f 38/40/21 27/29/21 28/30/21 
f 38/40/21 28/30/21 29/31/21 
f 38/40/21 29/31/21 30/32/21 
f 38/40/21 30/32/21 31/33/21 
f 38/40/21 31/33/21 32/34/21 
f 38/40/21 32/34/21 33/35/21 
f 38/40/21 33/35/21 34/36/21 
f 38/40/21 34/36/21 35/37/21 
f 38/40/21 35/37/21 36/38/21 
f 38/40/21 36/38/21 37/39/21 
f 38/40/21 37/39/21 21/22/21 
# 72 faces

